# xmcd
#
# Track frame offsets: 
#        150
#        14650
#        32639
#        57083
#        75808
#        90910
#        113675
#        129466
#        166518
#        181847
#        200546
#        222352
#        239510
#
# Disc length: 3522 seconds
#
# Revision: 2
# Processed by: cddbd v1.5.2PL0 Copyright (c) Steve Scherf et al.
# Submitted via: ExactAudioCopy v0.99pb4
#
DISCID=980dc00d
DTITLE=Various Artist - The Woolshed Sessions
DYEAR=2008
DGENRE=Blues
TTITLE0=Jess Chambers - Hey You
TTITLE1=A. Cummins - Easily Distracted
TTITLE2=A. Pryor - Waterfall
TTITLE3=Jess Chambers - Stringing Me Along
TTITLE4=A. Cummins - Babycakes
TTITLE5=A. Pryor - Acceptance
TTITLE6=A. Cummins - Dead Happy
TTITLE7=A. Pryor - Sun Song
TTITLE8=A. Cummins - I'll Not Bother You Anymore
TTITLE9=J. Clarke - Our World
TTITLE10=Jess Chambers - Only Your Arms
TTITLE11=A. Pryor - Voilence on the Quiet
TTITLE12=A. Pryor - I'd Take You With Me
EXTD=
EXTT0=
EXTT1=
EXTT2=
EXTT3=
EXTT4=
EXTT5=
EXTT6=
EXTT7=
EXTT8=
EXTT9=
EXTT10=
EXTT11=
EXTT12=
PLAYORDER=
